<svg version="1.1" class="clearos-svg clearfoundation app-vendor-clearfoundation app-free app-category-system app-sub-category-storage" viewBox="0 0 400 400" preserveAspectRatio="xMinYMin" xmlns="http://www.w3.org/2000/svg" xmlns:xlink= "http://www.w3.org/1999/xlink">
<path fill="#AA0707" d="M91.666,184.647"/>
<path fill="#AA0707" d="M123.245,247.805"/>
<path fill="#AA0707" d="M91.666,184.647"/>
<path fill="#AA0707" d="M123.245,247.805"/>
<g>
	<path fill="#686868" d="M338.944,2.661v327.046c0,18.896-15.336,34.23-34.218,34.23H95.254c-18.888,0-34.207-15.336-34.207-34.23
		V2.661H46.08v342.041c0,18.863,15.32,34.197,34.208,34.197h239.417c18.881,0,34.215-15.334,34.215-34.197V2.661H338.944z"/>
	<path fill="#686868" d="M80.287,20.836v53.461h238.34V20.836H80.287z M182.899,53.976H97.378V37.931h85.506v16.045H182.899z
		 M302.604,53.976h-16.037V37.931h16.037V53.976z"/>
	<path fill="#686868" d="M80.287,88.979v53.438h238.34V88.979H80.287z M182.899,122.091H97.378v-16.022h85.506v16.022H182.899z
		 M302.604,122.091h-16.037v-16.022h16.037V122.091z"/>
	<path fill="#686868" d="M80.287,157.659v53.439h238.34v-53.439H80.287z M182.899,190.771H97.378v-16.038h85.506v16.038H182.899z
		 M302.604,190.771h-16.037v-16.038h16.037V190.771z"/>
	<path fill="#686868" d="M80.287,225.768v53.455h238.34v-53.455H80.287z M182.899,258.938H97.378v-16.055h85.506v16.055H182.899z
		 M302.604,258.938h-16.037v-16.055h16.037V258.938z"/>
	<path fill="#686868" d="M80.287,293.104v53.455h238.34v-53.455H80.287z M182.899,326.271H97.378v-16.053h85.506v16.053H182.899z
		 M302.604,326.271h-16.037v-16.053h16.037V326.271z"/>
	<rect x="80.287" y="378.898" fill="#686868" width="34.472" height="18.441"/>
	<rect x="284.941" y="378.898" fill="#686868" width="35.014" height="18.441"/>
</g>
</svg>
